<svg t="1681278709871" class="icon" viewBox="0 0 1024 1024" version="1.1" xmlns="http://www.w3.org/2000/svg" p-id="41431" width="128" height="128">
	<path d="M512 512m-448 0a448 448 0 1 0 896 0 448 448 0 1 0-896 0Z" fill="#8C9EFF" p-id="41432"></path>
	<path d="M514.64 533a21.003 21.003 0 0 1-21-21V240.86c0-11.59 6.49-21.91 16.96-26.92 10.45-5.01 22.56-3.6 31.59 3.67l157.1 126.33c7.08 5.69 11.14 14.17 11.14 23.26s-4.06 17.56-11.14 23.26l-171.5 137.9c-3.8 3.06-8.46 4.64-13.15 4.64z m21-266.76v201.92L661.18 367.2 535.64 266.24z" fill="#FFFFFF" p-id="41433"></path>
	<path d="M334.6 677.8c-6.15 0-12.23-2.68-16.38-7.84-7.27-9.04-5.83-22.26 3.21-29.52L481.13 512l-159.7-128.43c-9.04-7.27-10.47-20.49-3.21-29.52 7.28-9.04 20.51-10.45 29.52-3.21l180.05 144.8a21.007 21.007 0 0 1 0 32.74l-180.05 144.8c-3.87 3.1-8.52 4.62-13.14 4.62z" fill="#FFFFFF" p-id="41434"></path>
	<path d="M523.54 813.02c-4.38 0-8.79-0.97-12.94-2.96-10.47-5.01-16.96-15.33-16.96-26.92V512c0-8.08 4.63-15.45 11.93-18.94 7.28-3.51 15.93-2.49 22.23 2.57l171.49 137.91c7.08 5.69 11.14 14.17 11.14 23.26 0 9.08-4.06 17.56-11.14 23.26l-157.1 126.33c-5.45 4.38-12.01 6.63-18.65 6.63z m12.1-257.18v201.93L661.18 656.8 535.64 555.84z" fill="#FFFFFF" p-id="41435"></path>
</svg>