<svg t="1681280072204" class="icon" viewBox="0 0 1024 1024" version="1.1" xmlns="http://www.w3.org/2000/svg" p-id="41709" width="128" height="128">
	<path d="M512 512m-414 0a414 414 0 1 0 828 0 414 414 0 1 0-828 0Z" fill="#F0C48A" p-id="41710"></path>
	<path d="M375.6 105.8V50c0-21 17.2-38.4 38.4-38.4h194.8c21 0 38.4 17.2 38.4 38.4v458.2c0 21-17.2 38.4-38.4 38.4H414c-21 0-38.4-17.2-38.4-38.4V105.8z" fill="#FD919E" p-id="41711"></path>
	<path d="M375.6 87h272.6v348H375.6z" fill="#FFFFFF" p-id="41712"></path>
	<path d="M594.8 90h52.6V41.8c0-15.8-12.8-28.4-28.4-28.4h-24V90zM594.8 546.6h13.4c21.6 0 39.2-17.6 39.2-39.2v-67.8c0-2.6-2.2-4.8-4.8-4.8h-47.8v111.8z" fill="#E8677D" p-id="41713"></path>
	<path d="M594.8 90h52.6v344.8h-52.6z" fill="#D3E6F8" p-id="41714"></path>
	<path d="M494.700305 505.954398a23.6 23.6 0 1 0 33.374857-33.376023 23.6 23.6 0 1 0-33.374857 33.376023Z" fill="#E8677D" p-id="41715"></path>
	<path d="M645.8 98.6H377.2c-6.4 0-11.8-5.2-11.8-11.8s5.2-11.8 11.8-11.8h268.6c6.4 0 11.8 5.2 11.8 11.8s-5.4 11.8-11.8 11.8zM645.8 446.6H377.2c-6.4 0-11.8-5.2-11.8-11.8s5.2-11.8 11.8-11.8h268.6c6.4 0 11.8 5.2 11.8 11.8s-5.4 11.8-11.8 11.8zM511.4 524.4c-19.4 0-35.2-15.8-35.2-35.2S492 454 511.4 454c19.4 0 35.2 15.8 35.2 35.2s-15.6 35.2-35.2 35.2z m0-47c-6.4 0-11.8 5.2-11.8 11.8 0 6.4 5.2 11.8 11.8 11.8 6.4 0 11.8-5.2 11.8-11.8 0-6.4-5.2-11.8-11.8-11.8z" fill="#4C4372" p-id="41716"></path>
	<path d="M609 558.4H414c-27.6 0-50-22.4-50-50V50c0-27.6 22.4-50 50-50h194.8c27.6 0 50 22.4 50 50v458.2c0.2 27.6-22.2 50.2-49.8 50.2zM414 23.4c-14.6 0-26.6 12-26.6 26.6v458.2c0 14.6 12 26.6 26.6 26.6h194.8c14.6 0 26.6-12 26.6-26.6V50c0-14.6-12-26.6-26.6-26.6H414z" fill="#4C4372" p-id="41717"></path>
	<path d="M259.8 410.2c-3 0-6-1.2-8.2-3.4-70.4-70.4-70.4-185 0-255.4 4.6-4.6 12-4.6 16.6 0 4.6 4.6 4.6 12 0 16.6-61.2 61.2-61.2 161 0 222.2 4.6 4.6 4.6 12 0 16.6-2.4 2.4-5.4 3.4-8.4 3.4z" fill="#4C4372" p-id="41718"></path>
	<path d="M297.6 372.4c-3 0-6-1.2-8.2-3.4-49.6-49.6-49.6-130 0-179.6 4.6-4.6 12-4.6 16.6 0 4.6 4.6 4.6 12 0 16.6-40.4 40.4-40.4 106 0 146.4 4.6 4.6 4.6 12 0 16.6-2.4 2.2-5.4 3.4-8.4 3.4z" fill="#4C4372" p-id="41719"></path>
	<path d="M764.2 410.2c-3 0-6-1.2-8.2-3.4-4.6-4.6-4.6-12 0-16.6 61.2-61.2 61.2-161 0-222.2-4.6-4.6-4.6-12 0-16.6 4.6-4.6 12-4.6 16.6 0 70.4 70.4 70.4 185 0 255.4-2.4 2.4-5.4 3.4-8.4 3.4z" fill="#4C4372" p-id="41720"></path>
	<path d="M726.4 372.4c-3 0-6-1.2-8.2-3.4-4.6-4.6-4.6-12 0-16.6 40.4-40.4 40.4-106 0-146.4-4.6-4.6-4.6-12 0-16.6 4.6-4.6 12-4.6 16.6 0 49.6 49.6 49.6 130 0 179.6-2.4 2.2-5.4 3.4-8.4 3.4z" fill="#4C4372" p-id="41721"></path>
	<path d="M923.2 1012.2H100.8c-49.2 0-89-39.8-89-89V683.6c0-49.2 39.8-89 89-89h822.4c49.2 0 89 39.8 89 89v239.6c0 49.2-39.8 89-89 89z" fill="#D3E6F8" p-id="41722"></path>
	<path d="M925 1012.2V594.4c48.2 0 87.2 39 87.2 87.2v243.4c0 48.2-39 87.2-87.2 87.2zM567.8 831.8h-111.6c-15.6 0-28.4-12.6-28.4-28.4 0-15.6 12.6-28.4 28.4-28.4h111.6c15.6 0 28.4 12.6 28.4 28.4 0 15.6-12.8 28.4-28.4 28.4z" fill="#A4CFF2" p-id="41723"></path>
	<path d="M923.2 1024H100.8C45.2 1024 0 978.8 0 923.2V683.6c0-55.6 45.2-100.8 100.8-100.8h822.4c55.6 0 100.8 45.2 100.8 100.8v239.6c0 55.6-45.2 100.8-100.8 100.8zM100.8 606.2c-42.6 0-77.4 34.6-77.4 77.4v239.6c0 42.6 34.6 77.4 77.4 77.4h822.4c42.6 0 77.4-34.6 77.4-77.4V683.6c0-42.6-34.6-77.4-77.4-77.4H100.8z" fill="#4C4372" p-id="41724"></path>
	<path d="M818.4 803.4m-114 0a114 114 0 1 0 228 0 114 114 0 1 0-228 0Z" fill="#D3E6F8" p-id="41725"></path>
	<path d="M818.4 689.4c-63 0-114 51-114 114 0 24 7.4 46.4 20.2 64.8 19.6 16 44.6 25.6 72 25.6 63 0 114-51 114-114 0-24-7.4-46.4-20.2-64.8-19.8-16-44.8-25.6-72-25.6z" fill="#FFFFFF" p-id="41726"></path>
	<path d="M818.4 929.2c-69.4 0-125.8-56.4-125.8-125.8s56.4-125.8 125.8-125.8 125.8 56.4 125.8 125.8-56.4 125.8-125.8 125.8z m0-228.2c-56.4 0-102.4 46-102.4 102.4 0 56.4 46 102.4 102.4 102.4 56.4 0 102.4-46 102.4-102.4 0-56.4-46-102.4-102.4-102.4z" fill="#4C4372" p-id="41727"></path>
	<path d="M818.4 855.4c-28.6 0-51.8-23.2-51.8-51.8 0-28.6 23.2-51.8 51.8-51.8s51.8 23.2 51.8 51.8c0 28.4-23.2 51.8-51.8 51.8z m0-80.4c-15.6 0-28.4 12.8-28.4 28.4 0 15.6 12.8 28.4 28.4 28.4s28.4-12.8 28.4-28.4c0-15.6-12.8-28.4-28.4-28.4zM667.8 701H356.2c-6.4 0-11.8-5.2-11.8-11.8 0-6.4 5.2-11.8 11.8-11.8h311.6c6.4 0 11.8 5.2 11.8 11.8-0.2 6.6-5.4 11.8-11.8 11.8zM667.8 929.2H356.2c-6.4 0-11.8-5.2-11.8-11.8 0-6.4 5.2-11.8 11.8-11.8h311.6c6.4 0 11.8 5.2 11.8 11.8-0.2 6.6-5.4 11.8-11.8 11.8z" fill="#4C4372" p-id="41728"></path>
	<path d="M575.4 831.8h-33.2v-59h33.2c11.4 0 20.8 9.2 20.8 20.8v17.6c0 11.2-9.4 20.6-20.8 20.6z" fill="#7BABF1" p-id="41729"></path>
	<path d="M567.8 843.4h-111.6c-22 0-40-18-40-40s18-40 40-40h111.6c22 0 40 18 40 40 0 22.2-17.8 40-40 40z m-111.6-56.6c-9.2 0-16.6 7.4-16.6 16.6s7.4 16.6 16.6 16.6h111.6c9.2 0 16.6-7.4 16.6-16.6s-7.4-16.6-16.6-16.6h-111.6z" fill="#4C4372" p-id="41730"></path>
	<path d="M205.6 803.4m-114 0a114 114 0 1 0 228 0 114 114 0 1 0-228 0Z" fill="#D3E6F8" p-id="41731"></path>
	<path d="M205.6 689.4c-63 0-114 51-114 114 0 24 7.4 46.4 20.2 64.8 19.6 16 44.6 25.6 72 25.6 63 0 114-51 114-114 0-24-7.4-46.4-20.2-64.8-19.6-16-44.6-25.6-72-25.6z" fill="#FFFFFF" p-id="41732"></path>
	<path d="M205.6 929.2c-69.4 0-125.8-56.4-125.8-125.8s56.4-125.8 125.8-125.8 125.8 56.4 125.8 125.8-56.4 125.8-125.8 125.8z m0-228.2c-56.4 0-102.4 46-102.4 102.4 0 56.4 46 102.4 102.4 102.4s102.4-46 102.4-102.4c0-56.4-46-102.4-102.4-102.4z" fill="#4C4372" p-id="41733"></path>
	<path d="M205.6 855.4c-28.6 0-51.8-23.2-51.8-51.8 0-28.6 23.2-51.8 51.8-51.8s51.8 23.2 51.8 51.8c0.2 28.4-23.2 51.8-51.8 51.8z m0-80.4c-15.6 0-28.4 12.8-28.4 28.4 0 15.6 12.8 28.4 28.4 28.4s28.4-12.8 28.4-28.4c0-15.6-12.6-28.4-28.4-28.4z" fill="#4C4372" p-id="41734"></path>
</svg>